<svg id="visual" viewBox="0 0 960 540" width="960" height="540" xmlns="http://www.w3.org/2000/svg" xmlns:xlink="http://www.w3.org/1999/xlink" version="1.1"><rect x="0" y="0" width="960" height="540" fill="#001220"></rect><defs><linearGradient id="grad1_0" x1="43.8%" y1="0%" x2="100%" y2="100%"><stop offset="14.444444444444446%" stop-color="#fbae3c" stop-opacity="1"></stop><stop offset="85.55555555555554%" stop-color="#fbae3c" stop-opacity="1"></stop></linearGradient></defs><defs><linearGradient id="grad1_1" x1="43.8%" y1="0%" x2="100%" y2="100%"><stop offset="14.444444444444446%" stop-color="#fbae3c" stop-opacity="1"></stop><stop offset="85.55555555555554%" stop-color="#96446e" stop-opacity="1"></stop></linearGradient></defs><defs><linearGradient id="grad1_2" x1="43.8%" y1="0%" x2="100%" y2="100%"><stop offset="14.444444444444446%" stop-color="#001220" stop-opacity="1"></stop><stop offset="85.55555555555554%" stop-color="#96446e" stop-opacity="1"></stop></linearGradient></defs><defs><linearGradient id="grad2_0" x1="0%" y1="0%" x2="56.3%" y2="100%"><stop offset="14.444444444444446%" stop-color="#fbae3c" stop-opacity="1"></stop><stop offset="85.55555555555554%" stop-color="#fbae3c" stop-opacity="1"></stop></linearGradient></defs><defs><linearGradient id="grad2_1" x1="0%" y1="0%" x2="56.3%" y2="100%"><stop offset="14.444444444444446%" stop-color="#96446e" stop-opacity="1"></stop><stop offset="85.55555555555554%" stop-color="#fbae3c" stop-opacity="1"></stop></linearGradient></defs><defs><linearGradient id="grad2_2" x1="0%" y1="0%" x2="56.3%" y2="100%"><stop offset="14.444444444444446%" stop-color="#96446e" stop-opacity="1"></stop><stop offset="85.55555555555554%" stop-color="#001220" stop-opacity="1"></stop></linearGradient></defs><g transform="translate(960, 0)"><path d="M0 270C-21.8 246.9 -43.7 223.8 -70.8 217.8C-97.9 211.8 -130.2 222.8 -156.9 216C-183.7 209.2 -204.8 184.4 -218.4 158.7C-232 133 -238 106.3 -245.4 79.7C-252.7 53.1 -261.4 26.6 -270 0L0 0Z" fill="#3d3056"></path><path d="M0 180C-14.6 164.6 -29.1 149.2 -47.2 145.2C-65.2 141.2 -86.8 148.6 -104.6 144C-122.5 139.4 -136.6 122.9 -145.6 105.8C-154.7 88.7 -158.7 70.9 -163.6 53.2C-168.5 35.4 -174.2 17.7 -180 0L0 0Z" fill="#e1685e"></path><path d="M0 90C-7.3 82.3 -14.6 74.6 -23.6 72.6C-32.6 70.6 -43.4 74.3 -52.3 72C-61.2 69.7 -68.3 61.5 -72.8 52.9C-77.3 44.3 -79.3 35.4 -81.8 26.6C-84.2 17.7 -87.1 8.9 -90 0L0 0Z" fill="#fbae3c"></path></g><g transform="translate(0, 540)"><path d="M0 -270C24.9 -247.3 49.9 -224.6 66.4 -204.5C83 -184.4 91.2 -166.8 118.7 -163.4C146.3 -160 193.2 -170.7 218.4 -158.7C243.6 -146.7 247.1 -112.1 252 -81.9C257 -51.7 263.5 -25.8 270 0L0 0Z" fill="#3d3056"></path><path d="M0 -180C16.6 -164.9 33.3 -149.7 44.3 -136.3C55.3 -122.9 60.8 -111.2 79.2 -108.9C97.5 -106.7 128.8 -113.8 145.6 -105.8C162.4 -97.8 164.7 -74.7 168 -54.6C171.3 -34.4 175.7 -17.2 180 0L0 0Z" fill="#e1685e"></path><path d="M0 -90C8.3 -82.4 16.6 -74.9 22.1 -68.2C27.7 -61.5 30.4 -55.6 39.6 -54.5C48.8 -53.3 64.4 -56.9 72.8 -52.9C81.2 -48.9 82.4 -37.4 84 -27.3C85.7 -17.2 87.8 -8.6 90 0L0 0Z" fill="#fbae3c"></path></g></svg>