<svg id="visual" viewBox="0 0 900 600" width="900" height="600" xmlns="http://www.w3.org/2000/svg" xmlns:xlink="http://www.w3.org/1999/xlink" version="1.1"><rect x="0" y="0" width="900" height="600" fill="#001220"></rect><path d="M0 419L21.5 418C43 417 86 415 128.8 412.8C171.7 410.7 214.3 408.3 257.2 412.2C300 416 343 426 385.8 423.3C428.7 420.7 471.3 405.3 514.2 400.3C557 395.3 600 400.7 642.8 400C685.7 399.3 728.3 392.7 771.2 397.8C814 403 857 420 878.5 428.5L900 437L900 601L878.5 601C857 601 814 601 771.2 601C728.3 601 685.7 601 642.8 601C600 601 557 601 514.2 601C471.3 601 428.7 601 385.8 601C343 601 300 601 257.2 601C214.3 601 171.7 601 128.8 601C86 601 43 601 21.5 601L0 601Z" fill="#fa7268"></path><path d="M0 456L21.5 456.7C43 457.3 86 458.7 128.8 461.3C171.7 464 214.3 468 257.2 459.2C300 450.3 343 428.7 385.8 427.3C428.7 426 471.3 445 514.2 449.5C557 454 600 444 642.8 439.3C685.7 434.7 728.3 435.3 771.2 442.8C814 450.3 857 464.7 878.5 471.8L900 479L900 601L878.5 601C857 601 814 601 771.2 601C728.3 601 685.7 601 642.8 601C600 601 557 601 514.2 601C471.3 601 428.7 601 385.8 601C343 601 300 601 257.2 601C214.3 601 171.7 601 128.8 601C86 601 43 601 21.5 601L0 601Z" fill="#ef5f67"></path><path d="M0 502L21.5 501C43 500 86 498 128.8 495.8C171.7 493.7 214.3 491.3 257.2 486.5C300 481.7 343 474.3 385.8 468.5C428.7 462.7 471.3 458.3 514.2 463.3C557 468.3 600 482.7 642.8 492C685.7 501.3 728.3 505.7 771.2 506C814 506.3 857 502.7 878.5 500.8L900 499L900 601L878.5 601C857 601 814 601 771.2 601C728.3 601 685.7 601 642.8 601C600 601 557 601 514.2 601C471.3 601 428.7 601 385.8 601C343 601 300 601 257.2 601C214.3 601 171.7 601 128.8 601C86 601 43 601 21.5 601L0 601Z" fill="#e34c67"></path><path d="M0 487L21.5 490.5C43 494 86 501 128.8 506.3C171.7 511.7 214.3 515.3 257.2 513.5C300 511.7 343 504.3 385.8 504.7C428.7 505 471.3 513 514.2 518.7C557 524.3 600 527.7 642.8 522C685.7 516.3 728.3 501.7 771.2 496.2C814 490.7 857 494.3 878.5 496.2L900 498L900 601L878.5 601C857 601 814 601 771.2 601C728.3 601 685.7 601 642.8 601C600 601 557 601 514.2 601C471.3 601 428.7 601 385.8 601C343 601 300 601 257.2 601C214.3 601 171.7 601 128.8 601C86 601 43 601 21.5 601L0 601Z" fill="#d53867"></path><path d="M0 547L21.5 549C43 551 86 555 128.8 554.3C171.7 553.7 214.3 548.3 257.2 544.2C300 540 343 537 385.8 537C428.7 537 471.3 540 514.2 545.5C557 551 600 559 642.8 560C685.7 561 728.3 555 771.2 554.3C814 553.7 857 558.3 878.5 560.7L900 563L900 601L878.5 601C857 601 814 601 771.2 601C728.3 601 685.7 601 642.8 601C600 601 557 601 514.2 601C471.3 601 428.7 601 385.8 601C343 601 300 601 257.2 601C214.3 601 171.7 601 128.8 601C86 601 43 601 21.5 601L0 601Z" fill="#c62368"></path></svg>