<svg id="visual" viewBox="0 0 900 600" width="900" height="600" xmlns="http://www.w3.org/2000/svg" xmlns:xlink="http://www.w3.org/1999/xlink" version="1.1"><rect x="0" y="0" width="900" height="600" fill="#022037"></rect><g transform="translate(488.7290522272059 300.0118522171299)"><path d="M266.5 -354.5C356.7 -301.3 448.9 -238.6 437.8 -167.2C426.7 -95.8 312.3 -15.8 288.2 104.6C264.1 224.9 330.4 385.5 297.5 420.1C264.5 454.7 132.3 363.4 40.5 307.7C-51.3 252 -102.7 232 -189.7 214.9C-276.7 197.9 -399.4 183.8 -464.4 119C-529.4 54.2 -536.7 -61.3 -466.2 -112.3C-395.7 -163.3 -247.5 -149.9 -156.8 -203C-66.1 -256 -33.1 -375.5 27.6 -413.4C88.2 -451.4 176.3 -407.7 266.5 -354.5" fill="#001220"></path></g></svg>