<svg id="visual" viewBox="0 0 960 540" width="960" height="540" xmlns="http://www.w3.org/2000/svg" xmlns:xlink="http://www.w3.org/1999/xlink" version="1.1"><path d="M0 28L14.5 26.2C29 24.3 58 20.7 87.2 21.5C116.3 22.3 145.7 27.7 174.8 29.5C204 31.3 233 29.7 262 27C291 24.3 320 20.7 349 21.5C378 22.3 407 27.7 436.2 30.3C465.3 33 494.7 33 523.8 32.2C553 31.3 582 29.7 611 27C640 24.3 669 20.7 698 19.8C727 19 756 21 785.2 24.7C814.3 28.3 843.7 33.7 872.8 32.7C902 31.7 931 24.3 945.5 20.7L960 17L960 0L945.5 0C931 0 902 0 872.8 0C843.7 0 814.3 0 785.2 0C756 0 727 0 698 0C669 0 640 0 611 0C582 0 553 0 523.8 0C494.7 0 465.3 0 436.2 0C407 0 378 0 349 0C320 0 291 0 262 0C233 0 204 0 174.8 0C145.7 0 116.3 0 87.2 0C58 0 29 0 14.5 0L0 0Z" fill="#000f19"></path><path d="M0 93L14.5 104.7C29 116.3 58 139.7 87.2 155C116.3 170.3 145.7 177.7 174.8 166.8C204 156 233 127 262 109C291 91 320 84 349 88.5C378 93 407 109 436.2 116.2C465.3 123.3 494.7 121.7 523.8 124.3C553 127 582 134 611 137.5C640 141 669 141 698 132C727 123 756 105 785.2 112.3C814.3 119.7 843.7 152.3 872.8 156C902 159.7 931 134.3 945.5 121.7L960 109L960 15L945.5 18.7C931 22.3 902 29.7 872.8 30.7C843.7 31.7 814.3 26.3 785.2 22.7C756 19 727 17 698 17.8C669 18.7 640 22.3 611 25C582 27.7 553 29.3 523.8 30.2C494.7 31 465.3 31 436.2 28.3C407 25.7 378 20.3 349 19.5C320 18.7 291 22.3 262 25C233 27.7 204 29.3 174.8 27.5C145.7 25.7 116.3 20.3 87.2 19.5C58 18.7 29 22.3 14.5 24.2L0 26Z" fill="#00101c"></path><path d="M0 120L14.5 130.8C29 141.7 58 163.3 87.2 176.8C116.3 190.3 145.7 195.7 174.8 185.7C204 175.7 233 150.3 262 132.3C291 114.3 320 103.7 349 108.2C378 112.7 407 132.3 436.2 141.3C465.3 150.3 494.7 148.7 523.8 148.7C553 148.7 582 150.3 611 153.8C640 157.3 669 162.7 698 156.3C727 150 756 132 785.2 137.5C814.3 143 843.7 172 872.8 174.8C902 177.7 931 154.3 945.5 142.7L960 131L960 107L945.5 119.7C931 132.3 902 157.7 872.8 154C843.7 150.3 814.3 117.7 785.2 110.3C756 103 727 121 698 130C669 139 640 139 611 135.5C582 132 553 125 523.8 122.3C494.7 119.7 465.3 121.3 436.2 114.2C407 107 378 91 349 86.5C320 82 291 89 262 107C233 125 204 154 174.8 164.8C145.7 175.7 116.3 168.3 87.2 153C58 137.7 29 114.3 14.5 102.7L0 91Z" fill="#00121f"></path><path d="M0 152L14.5 162.8C29 173.7 58 195.3 87.2 207C116.3 218.7 145.7 220.3 174.8 209.5C204 198.7 233 175.3 262 157.3C291 139.3 320 126.7 349 128.5C378 130.3 407 146.7 436.2 156.7C465.3 166.7 494.7 170.3 523.8 171.2C553 172 582 170 611 174.5C640 179 669 190 698 182.8C727 175.7 756 150.3 785.2 154.8C814.3 159.3 843.7 193.7 872.8 196.3C902 199 931 170 945.5 155.5L960 141L960 129L945.5 140.7C931 152.3 902 175.7 872.8 172.8C843.7 170 814.3 141 785.2 135.5C756 130 727 148 698 154.3C669 160.7 640 155.3 611 151.8C582 148.3 553 146.7 523.8 146.7C494.7 146.7 465.3 148.3 436.2 139.3C407 130.3 378 110.7 349 106.2C320 101.7 291 112.3 262 130.3C233 148.3 204 173.7 174.8 183.7C145.7 193.7 116.3 188.3 87.2 174.8C58 161.3 29 139.7 14.5 128.8L0 118Z" fill="#022037"></path><path d="M0 201L14.5 210.8C29 220.7 58 240.3 87.2 252C116.3 263.7 145.7 267.3 174.8 253.8C204 240.3 233 209.7 262 190.8C291 172 320 165 349 170.5C378 176 407 194 436.2 204.7C465.3 215.3 494.7 218.7 523.8 216.8C553 215 582 208 611 212.5C640 217 669 233 698 224.8C727 216.7 756 184.3 785.2 188.8C814.3 193.3 843.7 234.7 872.8 239.2C902 243.7 931 211.3 945.5 195.2L960 179L960 139L945.5 153.5C931 168 902 197 872.8 194.3C843.7 191.7 814.3 157.3 785.2 152.8C756 148.3 727 173.7 698 180.8C669 188 640 177 611 172.5C582 168 553 170 523.8 169.2C494.7 168.3 465.3 164.7 436.2 154.7C407 144.7 378 128.3 349 126.5C320 124.7 291 137.3 262 155.3C233 173.3 204 196.7 174.8 207.5C145.7 218.3 116.3 216.7 87.2 205C58 193.3 29 171.7 14.5 160.8L0 150Z" fill="#003355"></path><path d="M0 233L14.5 240.2C29 247.3 58 261.7 87.2 272.5C116.3 283.3 145.7 290.7 174.8 278.2C204 265.7 233 233.3 262 211.7C291 190 320 179 349 183.5C378 188 407 208 436.2 219.8C465.3 231.7 494.7 235.3 523.8 233.5C553 231.7 582 224.3 611 230.5C640 236.7 669 256.3 698 249.2C727 242 756 208 785.2 210.8C814.3 213.7 843.7 253.3 872.8 257.8C902 262.3 931 231.7 945.5 216.3L960 201L960 177L945.5 193.2C931 209.3 902 241.7 872.8 237.2C843.7 232.7 814.3 191.3 785.2 186.8C756 182.3 727 214.7 698 222.8C669 231 640 215 611 210.5C582 206 553 213 523.8 214.8C494.7 216.7 465.3 213.3 436.2 202.7C407 192 378 174 349 168.5C320 163 291 170 262 188.8C233 207.7 204 238.3 174.8 251.8C145.7 265.3 116.3 261.7 87.2 250C58 238.3 29 218.7 14.5 208.8L0 199Z" fill="#003a62"></path><path d="M0 276L14.5 281.5C29 287 58 298 87.2 312.5C116.3 327 145.7 345 174.8 335C204 325 233 287 262 269C291 251 320 253 349 263C378 273 407 291 436.2 298.2C465.3 305.3 494.7 301.7 523.8 300.7C553 299.7 582 301.3 611 304C640 306.7 669 310.3 698 304.2C727 298 756 282 785.2 294.7C814.3 307.3 843.7 348.7 872.8 348.7C902 348.7 931 307.3 945.5 286.7L960 266L960 199L945.5 214.3C931 229.7 902 260.3 872.8 255.8C843.7 251.3 814.3 211.7 785.2 208.8C756 206 727 240 698 247.2C669 254.3 640 234.7 611 228.5C582 222.3 553 229.7 523.8 231.5C494.7 233.3 465.3 229.7 436.2 217.8C407 206 378 186 349 181.5C320 177 291 188 262 209.7C233 231.3 204 263.7 174.8 276.2C145.7 288.7 116.3 281.3 87.2 270.5C58 259.7 29 245.3 14.5 238.2L0 231Z" fill="#003a62"></path><path d="M0 298L14.5 302.5C29 307 58 316 87.2 328.7C116.3 341.3 145.7 357.7 174.8 347.8C204 338 233 302 262 287.5C291 273 320 280 349 291.7C378 303.3 407 319.7 436.2 326.8C465.3 334 494.7 332 523.8 331C553 330 582 330 611 332.8C640 335.7 669 341.3 698 336.8C727 332.3 756 317.7 785.2 328.3C814.3 339 843.7 375 872.8 375C902 375 931 339 945.5 321L960 303L960 264L945.5 284.7C931 305.3 902 346.7 872.8 346.7C843.7 346.7 814.3 305.3 785.2 292.7C756 280 727 296 698 302.2C669 308.3 640 304.7 611 302C582 299.3 553 297.7 523.8 298.7C494.7 299.7 465.3 303.3 436.2 296.2C407 289 378 271 349 261C320 251 291 249 262 267C233 285 204 323 174.8 333C145.7 343 116.3 325 87.2 310.5C58 296 29 285 14.5 279.5L0 274Z" fill="#003355"></path><path d="M0 471L14.5 463.8C29 456.7 58 442.3 87.2 436C116.3 429.7 145.7 431.3 174.8 429.5C204 427.7 233 422.3 262 419.7C291 417 320 417 349 417C378 417 407 417 436.2 418.8C465.3 420.7 494.7 424.3 523.8 426.2C553 428 582 428 611 423.5C640 419 669 410 698 410C727 410 756 419 785.2 428.8C814.3 438.7 843.7 449.3 872.8 449.3C902 449.3 931 438.7 945.5 433.3L960 428L960 301L945.5 319C931 337 902 373 872.8 373C843.7 373 814.3 337 785.2 326.3C756 315.7 727 330.3 698 334.8C669 339.3 640 333.7 611 330.8C582 328 553 328 523.8 329C494.7 330 465.3 332 436.2 324.8C407 317.7 378 301.3 349 289.7C320 278 291 271 262 285.5C233 300 204 336 174.8 345.8C145.7 355.7 116.3 339.3 87.2 326.7C58 314 29 305 14.5 300.5L0 296Z" fill="#022037"></path><path d="M0 492L14.5 492C29 492 58 492 87.2 486.7C116.3 481.3 145.7 470.7 174.8 465.3C204 460 233 460 262 457.3C291 454.7 320 449.3 349 451.2C378 453 407 462 436.2 468.3C465.3 474.7 494.7 478.3 523.8 480.2C553 482 582 482 611 479.2C640 476.3 669 470.7 698 468.8C727 467 756 469 785.2 471.8C814.3 474.7 843.7 478.3 872.8 476.5C902 474.7 931 467.3 945.5 463.7L960 460L960 426L945.5 431.3C931 436.7 902 447.3 872.8 447.3C843.7 447.3 814.3 436.7 785.2 426.8C756 417 727 408 698 408C669 408 640 417 611 421.5C582 426 553 426 523.8 424.2C494.7 422.3 465.3 418.7 436.2 416.8C407 415 378 415 349 415C320 415 291 415 262 417.7C233 420.3 204 425.7 174.8 427.5C145.7 429.3 116.3 427.7 87.2 434C58 440.3 29 454.7 14.5 461.8L0 469Z" fill="#00121f"></path><path d="M0 514L14.5 514.8C29 515.7 58 517.3 87.2 512.8C116.3 508.3 145.7 497.7 174.8 495C204 492.3 233 497.7 262 496.8C291 496 320 489 349 487.2C378 485.3 407 488.7 436.2 494C465.3 499.3 494.7 506.7 523.8 507.7C553 508.7 582 503.3 611 501.5C640 499.7 669 501.3 698 501.3C727 501.3 756 499.7 785.2 500.7C814.3 501.7 843.7 505.3 872.8 504.3C902 503.3 931 497.7 945.5 494.8L960 492L960 458L945.5 461.7C931 465.3 902 472.7 872.8 474.5C843.7 476.3 814.3 472.7 785.2 469.8C756 467 727 465 698 466.8C669 468.7 640 474.3 611 477.2C582 480 553 480 523.8 478.2C494.7 476.3 465.3 472.7 436.2 466.3C407 460 378 451 349 449.2C320 447.3 291 452.7 262 455.3C233 458 204 458 174.8 463.3C145.7 468.7 116.3 479.3 87.2 484.7C58 490 29 490 14.5 490L0 490Z" fill="#00101c"></path><path d="M0 541L14.5 541C29 541 58 541 87.2 541C116.3 541 145.7 541 174.8 541C204 541 233 541 262 541C291 541 320 541 349 541C378 541 407 541 436.2 541C465.3 541 494.7 541 523.8 541C553 541 582 541 611 541C640 541 669 541 698 541C727 541 756 541 785.2 541C814.3 541 843.7 541 872.8 541C902 541 931 541 945.5 541L960 541L960 490L945.5 492.8C931 495.7 902 501.3 872.8 502.3C843.7 503.3 814.3 499.7 785.2 498.7C756 497.7 727 499.3 698 499.3C669 499.3 640 497.7 611 499.5C582 501.3 553 506.7 523.8 505.7C494.7 504.7 465.3 497.3 436.2 492C407 486.7 378 483.3 349 485.2C320 487 291 494 262 494.8C233 495.7 204 490.3 174.8 493C145.7 495.7 116.3 506.3 87.2 510.8C58 515.3 29 513.7 14.5 512.8L0 512Z" fill="#000f19"></path></svg>